# xmcd
#
# Track frame offsets:
#	150
#	23025
#	41250
#	58500
#	77212
#	93427
#	111352
#	136664
#	149564
#	170339
#	185203
#	200503
#	215503
#	232183
#	250783
#
# Disc length: 3604 seconds
#
# Revision: 2
# Processed by: cddbd v1.5.1PL2 Copyright (c) Steve Scherf et al.
# Submitted via: audiograbber 1.83.01
#
DISCID=d70e120f
DTITLE=Music Maestro - MM6428
DYEAR=1900
DGENRE=Karaoke
TTITLE0=Chesney, Kenny - Anything But Mine
TTITLE1=Lonestar - Class Reunion
TTITLE2=Rascal Flatts - Bless The Broken Road
TTITLE3=Wilson, Gretchen - When I Think About Cheatin'
TTITLE4=Vassar, Phil - I'll Take That As A Yes (Hot Tub Song)
TTITLE5=Brooks and Dunn - It's Getting Better All The Time
TTITLE6=Evans, Sara - Tonight
TTITLE7=Blue Country - Nothin' But Cowboy Boots
TTITLE8=McBride, Martina - God's Will
TTITLE9=Morgan, Craig - That's What I Like About Sunday
TTITLE10=Adkins, Trace - Songs About Me
TTITLE11=Messina, Jo Dee - My Give A Damn's Busted
TTITLE12=Keith, Toby and Krystal - Mockingbird
TTITLE13=Larsen, Blain - How Do You Get That Lonely
TTITLE14=Gentry, Montgomery - Gone
EXTD=
EXTT0=
EXTT1=
EXTT2=
EXTT3=
EXTT4=
EXTT5=
EXTT6=
EXTT7=
EXTT8=
EXTT9=
EXTT10=
EXTT11=
EXTT12=
EXTT13=
EXTT14=
PLAYORDER=
